<svg width="40" height="40" viewBox="0 0 40 40" fill="none" xmlns="http://www.w3.org/2000/svg">
<path d="M14.1711 13.3333C13.9489 13.3333 13.7358 13.4279 13.5787 13.5962C13.4216 13.7645 13.3334 13.9927 13.3334 14.2308C13.3334 14.4688 13.4216 14.697 13.5787 14.8653C13.7358 15.0336 13.9489 15.1282 14.1711 15.1282H15.7191C15.909 15.1282 16.0743 15.2646 16.1234 15.4608L18.9805 26.9385C18.0831 27.1889 17.2887 27.7512 16.7215 28.5372C16.1544 29.3232 15.8466 30.2886 15.8464 31.282C15.8464 31.7774 16.2217 32.1795 16.6841 32.1795H34.2755C34.4977 32.1795 34.7107 32.0849 34.8678 31.9166C35.0249 31.7483 35.1132 31.5201 35.1132 31.282C35.1132 31.044 35.0249 30.8158 34.8678 30.6475C34.7107 30.4792 34.4977 30.3846 34.2755 30.3846H17.6648C17.838 29.8596 18.159 29.405 18.5835 29.0836C19.008 28.7621 19.515 28.5896 20.0349 28.5897H32.5644C32.7213 28.5897 32.8751 28.5425 33.0082 28.4535C33.1413 28.3644 33.2483 28.2371 33.3172 28.086C34.5923 25.2825 35.6967 22.3935 36.6232 19.4371C36.6598 19.3201 36.6736 19.1964 36.6635 19.0735C36.6535 18.9506 36.6199 18.8312 36.5649 18.7229C36.5098 18.6145 36.4345 18.5195 36.3437 18.4437C36.2529 18.3679 36.1484 18.313 36.0369 18.2824C30.146 16.6732 24.0804 15.9178 18.0021 16.0364L17.7429 14.999C17.6241 14.5212 17.3612 14.0989 16.9952 13.7977C16.6292 13.4965 16.1806 13.3333 15.7191 13.3333H14.1711ZM15.8464 34.8718C15.8464 34.3958 16.0229 33.9392 16.3371 33.6026C16.6513 33.266 17.0775 33.0769 17.5218 33.0769C17.9661 33.0769 18.3923 33.266 18.7065 33.6026C19.0207 33.9392 19.1972 34.3958 19.1972 34.8718C19.1972 35.3478 19.0207 35.8043 18.7065 36.141C18.3923 36.4776 17.9661 36.6667 17.5218 36.6667C17.0775 36.6667 16.6513 36.4776 16.3371 36.141C16.0229 35.8043 15.8464 35.3478 15.8464 34.8718ZM30.0871 34.8718C30.0871 34.3958 30.2636 33.9392 30.5778 33.6026C30.892 33.266 31.3181 33.0769 31.7624 33.0769C32.2068 33.0769 32.6329 33.266 32.9471 33.6026C33.2613 33.9392 33.4378 34.3958 33.4378 34.8718C33.4378 35.3478 33.2613 35.8043 32.9471 36.141C32.6329 36.4776 32.2068 36.6667 31.7624 36.6667C31.3181 36.6667 30.892 36.4776 30.5778 36.141C30.2636 35.8043 30.0871 35.3478 30.0871 34.8718Z" fill="white"/>
</svg>
